{
  "source": "C:\\Users\\Peter\\Desktop\\stuff\\MIUN\\quantitative_research\\video_compression\\videos\\HEVC_CLASS_B\\BasketballDrive_1920x1080_50.y4m",
  "output": "C:\\Users\\Peter\\Desktop\\stuff\\MIUN\\quantitative_research\\video_compression\\compressed_videos\\HEVC_CLASS_B\\av1\\2\\BasketballDrive_1920x1080_50_av1.mkv",
  "codec": "av1",
  "ok": "Input #0, yuv4mpegpipe, from 'C:\\Users\\Peter\\Desktop\\stuff\\MIUN\\quantitative_research\\video_compression\\videos\\HEVC_CLASS_B\\BasketballDrive_1920x1080_50.y4m':\n  Duration: 00:00:10.00, start: 0.000000, bitrate: 1244162 kb/s\n  Stream #0:0: Video: rawvideo (I420 / 0x30323449), yuv420p(progressive), 1920x1080, 50 fps, 50 tbr, 50 tbn\n[out#0/matroska @ 00000239dfac9c40] Codec AVOption b:a (set bitrate (in bits/s)) has not been used for any stream. The most likely reason is either wrong type (e.g. a video option with no video streams) or that it is a private option of some decoder which was not actually used for any stream.\nStream mapping:\n  Stream #0:0 -> #0:0 (rawvideo (native) -> av1 (libsvtav1))\nPress [q] to stop, [?] for help\nSvt[info]: -------------------------------------------\nSvt[info]: SVT [version]:\tSVT-AV1 Encoder Lib v3.1.0-19-g6ecfe8ec\nSvt[info]: SVT [build]  :\tGCC 15.2.0\t 64 bit\nSvt[info]: LIB Build date: Aug 17 2025 11:37:13\nSvt[info]: -------------------------------------------\n[libsvtav1 @ 00000239dfacc100] Specified chroma sample location center is unsupported on the AV1 bit stream level. Usage of a container that allows passing this information - such as Matroska - is recommended.\nSvt[info]: Level of Parallelism: 5\nSvt[info]: Number of PPCS 93\nSvt[info]: [asm level on system : up to avx2]\nSvt[info]: [asm level selected : up to avx2]\nSvt[info]: -------------------------------------------\nSvt[info]: SVT [config]: main profile\ttier (auto)\tlevel (auto)\nSvt[info]: SVT [config]: width / height / fps numerator / fps denominator \t\t: 1920 / 1080 / 50 / 1\nSvt[info]: SVT [config]: bit-depth / color format \t\t\t\t\t: 8 / YUV420\nSvt[info]: SVT [config]: preset / tune / pred struct \t\t\t\t\t: 4 / PSNR / random access\nSvt[info]: SVT [config]: gop size / mini-gop size / key-frame type \t\t\t: 321 / 16 / key frame\nSvt[info]: SVT [config]: BRC mode / target bitrate (kbps)\t\t\t\t: VBR / 2000 \nSvt[info]: SVT [config]: AQ mode / Variance Boost \t\t\t\t\t: 2 / 0\nSvt[info]: SVT [config]: sharpness / luminance-based QP bias \t\t\t\t: 0 / 0\nSvt[info]: SVT [config]: QP scale compress strength \t\t\t\t\t: 0\nSvt[info]: -------------------------------------------\nOutput #0, matroska, to 'C:\\Users\\Peter\\Desktop\\stuff\\MIUN\\quantitative_research\\video_compression\\compressed_videos\\HEVC_CLASS_B\\av1\\2\\BasketballDrive_1920x1080_50_av1.mkv':\n  Metadata:\n    encoder         : Lavf62.3.100\n  Stream #0:0: Video: av1 (AV01 / 0x31305641), yuv420p(tv, progressive), 1920x1080, q=2-31, 2000 kb/s, 50 fps, 1k tbn\n    Metadata:\n      encoder         : Lavc62.11.100 libsvtav1\n    Side data:\n      cpb: bitrate max/min/avg: 0/0/2000000 buffer size: 2000000 vbv_delay: N/A\nframe=    0 fps=0.0 q=0.0 size=       0KiB time=N/A bitrate=N/A speed=N/A elapsed=0:00:00.52    \nframe=    0 fps=0.0 q=0.0 size=       0KiB time=N/A bitrate=N/A speed=N/A elapsed=0:00:01.77    \nframe=    0 fps=0.0 q=0.0 size=       0KiB time=N/A bitrate=N/A speed=N/A elapsed=0:00:02.30    \nframe=    0 fps=0.0 q=0.0 size=       0KiB time=N/A bitrate=N/A speed=N/A elapsed=0:00:02.88    \nframe=    0 fps=0.0 q=0.0 size=       0KiB time=N/A bitrate=N/A speed=N/A elapsed=0:00:03.40    \nframe=    0 fps=0.0 q=0.0 size=       0KiB time=N/A bitrate=N/A speed=N/A elapsed=0:00:03.93    \nframe=    0 fps=0.0 q=0.0 size=       0KiB time=N/A bitrate=N/A speed=N/A elapsed=0:00:04.46    \nframe=    0 fps=0.0 q=0.0 size=       0KiB time=N/A bitrate=N/A speed=N/A elapsed=0:00:05.01    \nframe=    0 fps=0.0 q=0.0 size=       0KiB time=N/A bitrate=N/A speed=N/A elapsed=0:00:05.56    \nframe=    0 fps=0.0 q=0.0 size=       0KiB time=N/A bitrate=N/A speed=N/A elapsed=0:00:06.08    \nframe=    0 fps=0.0 q=0.0 size=       0KiB time=N/A bitrate=N/A speed=N/A elapsed=0:00:06.79    \nframe=    0 fps=0.0 q=0.0 size=       0KiB time=N/A bitrate=N/A speed=N/A elapsed=0:00:08.30    \nframe=    0 fps=0.0 q=0.0 size=       0KiB time=N/A bitrate=N/A speed=N/A elapsed=0:00:09.48    \nframe=    1 fps=0.1 q=27.0 size=       1KiB time=00:00:00.00 bitrate=N/A speed=   0x elapsed=0:00:10.26    \nframe=    1 fps=0.1 q=27.0 size=       1KiB time=00:00:00.00 bitrate=N/A speed=   0x elapsed=0:00:10.96    \nframe=    1 fps=0.1 q=27.0 size=       1KiB time=00:00:00.00 bitrate=N/A speed=   0x elapsed=0:00:11.65    \nframe=    1 fps=0.1 q=27.0 size=       1KiB time=00:00:00.00 bitrate=N/A speed=   0x elapsed=0:00:12.41    \nframe=    1 fps=0.1 q=27.0 size=       1KiB time=00:00:00.00 bitrate=N/A speed=   0x elapsed=0:00:13.15    \nframe=    1 fps=0.1 q=27.0 size=       1KiB time=00:00:00.00 bitrate=N/A speed=   0x elapsed=0:00:13.94    \nframe=    2 fps=0.1 q=52.0 size=       1KiB time=00:00:00.02 bitrate= 224.8kbits/s speed=0.00138x elapsed=0:00:14.45    \nframe=    4 fps=0.3 q=52.0 size=       1KiB time=00:00:00.06 bitrate=  74.9kbits/s speed=0.00401x elapsed=0:00:14.97    \nframe=    6 fps=0.4 q=52.0 size=       1KiB time=00:00:00.10 bitrate=  45.0kbits/s speed=0.00645x elapsed=0:00:15.49    \nframe=    7 fps=0.4 q=49.0 size=       1KiB time=00:00:00.12 bitrate=  37.5kbits/s speed=0.00749x elapsed=0:00:16.01    \nframe=    7 fps=0.4 q=49.0 size=       1KiB time=00:00:00.12 bitrate=  37.5kbits/s speed=0.00725x elapsed=0:00:16.54    \nframe=    8 fps=0.5 q=50.0 size=       1KiB time=00:00:00.14 bitrate=  32.1kbits/s speed=0.00821x elapsed=0:00:17.05    \nframe=    9 fps=0.5 q=44.0 size=       1KiB time=00:00:00.16 bitrate=  28.1kbits/s speed=0.0091x elapsed=0:00:17.58    \nframe=   11 fps=0.6 q=48.0 size=       1KiB time=00:00:00.20 bitrate=  22.5kbits/s speed=0.011x elapsed=0:00:18.10    \nframe=   12 fps=0.6 q=47.0 size=       1KiB time=00:00:00.22 bitrate=  20.4kbits/s speed=0.0118x elapsed=0:00:18.62    \nframe=   12 fps=0.6 q=47.0 size=       1KiB time=00:00:00.22 bitrate=  20.4kbits/s speed=0.0115x elapsed=0:00:19.16    \nframe=   13 fps=0.7 q=46.0 size=       1KiB time=00:00:00.24 bitrate=  18.7kbits/s speed=0.0122x elapsed=0:00:19.70    \nframe=   14 fps=0.7 q=47.0 size=       1KiB time=00:00:00.26 bitrate=  17.3kbits/s speed=0.0128x elapsed=0:00:20.26    \nframe=   16 fps=0.8 q=47.0 size=       1KiB time=00:00:00.30 bitrate=  15.0kbits/s speed=0.0144x elapsed=0:00:20.79    \nframe=   18 fps=0.8 q=47.0 size=       1KiB time=00:00:00.34 bitrate=  13.2kbits/s speed=0.0159x elapsed=0:00:21.33    \nframe=   19 fps=0.9 q=50.0 size=       1KiB time=00:00:00.36 bitrate=  12.5kbits/s speed=0.0164x elapsed=0:00:21.89    \nframe=   21 fps=0.9 q=48.0 size=       1KiB time=00:00:00.40 bitrate=  11.2kbits/s speed=0.0178x elapsed=0:00:22.40    \nframe=   21 fps=0.9 q=48.0 size=       1KiB time=00:00:00.40 bitrate=  11.2kbits/s speed=0.0174x elapsed=0:00:22.94    \nframe=   22 fps=0.9 q=46.0 size=       1KiB time=00:00:00.42 bitrate=  10.7kbits/s speed=0.0179x elapsed=0:00:23.47    \nframe=   23 fps=1.0 q=50.0 size=       1KiB time=00:00:00.44 bitrate=  10.2kbits/s speed=0.0183x elapsed=0:00:23.98    \nframe=   23 fps=0.9 q=50.0 size=       1KiB time=00:00:00.44 bitrate=  10.2kbits/s speed=0.018x elapsed=0:00:24.51    \nframe=   24 fps=1.0 q=45.0 size=       1KiB time=00:00:00.44 bitrate=  10.2kbits/s speed=0.0176x elapsed=0:00:25.04    \nframe=   24 fps=0.9 q=45.0 size=       1KiB time=00:00:00.46 bitrate=   9.8kbits/s speed=0.0179x elapsed=0:00:25.66    \nframe=   25 fps=1.0 q=45.0 size=       1KiB time=00:00:00.48 bitrate=   9.4kbits/s speed=0.0183x elapsed=0:00:26.20    \nframe=   26 fps=1.0 q=44.0 size=       1KiB time=00:00:00.50 bitrate=   9.0kbits/s speed=0.0187x elapsed=0:00:26.75    \nframe=   28 fps=1.0 q=44.0 size=       1KiB time=00:00:00.54 bitrate=   8.3kbits/s speed=0.0198x elapsed=0:00:27.29    \nframe=   29 fps=1.0 q=46.0 size=       1KiB time=00:00:00.56 bitrate=   8.0kbits/s speed=0.0201x elapsed=0:00:27.82    \nframe=   29 fps=1.0 q=46.0 size=       1KiB time=00:00:00.56 bitrate=   8.0kbits/s speed=0.0197x elapsed=0:00:28.35    \nframe=   31 fps=1.1 q=49.0 size=       1KiB time=00:00:00.60 bitrate=   7.5kbits/s speed=0.0208x elapsed=0:00:28.90    \nframe=   33 fps=1.1 q=33.0 size=       1KiB time=00:00:00.64 bitrate=   7.0kbits/s speed=0.0217x elapsed=0:00:29.48    \nframe=   33 fps=1.1 q=33.0 size=       1KiB time=00:00:00.64 bitrate=   7.0kbits/s speed=0.0213x elapsed=0:00:30.00    \nframe=   34 fps=1.1 q=44.0 size=       1KiB time=00:00:00.66 bitrate=   6.8kbits/s speed=0.0216x elapsed=0:00:30.53    \nframe=   35 fps=1.1 q=49.0 size=       1KiB time=00:00:00.68 bitrate=   6.6kbits/s speed=0.0219x elapsed=0:00:31.11    \nframe=   36 fps=1.1 q=45.0 size=       1KiB time=00:00:00.70 bitrate=   6.4kbits/s speed=0.0221x elapsed=0:00:31.65    \nframe=   37 fps=1.1 q=48.0 size=       1KiB time=00:00:00.72 bitrate=   6.2kbits/s speed=0.0224x elapsed=0:00:32.21    \nframe=   38 fps=1.2 q=46.0 size=       1KiB time=00:00:00.74 bitrate=   6.1kbits/s speed=0.0226x elapsed=0:00:32.74    \nframe=   39 fps=1.2 q=50.0 size=       1KiB time=00:00:00.76 bitrate=   5.9kbits/s speed=0.0229x elapsed=0:00:33.25    \nframe=   40 fps=1.2 q=46.0 size=       1KiB time=00:00:00.76 bitrate=   5.9kbits/s speed=0.0225x elapsed=0:00:33.81    \nframe=   41 fps=1.2 q=43.0 size=       1KiB time=00:00:00.78 bitrate=   5.8kbits/s speed=0.0227x elapsed=0:00:34.39    \nframe=   41 fps=1.2 q=43.0 size=       1KiB time=00:00:00.80 bitrate=   5.6kbits/s speed=0.0229x elapsed=0:00:34.98    \nframe=   42 fps=1.2 q=46.0 size=       1KiB time=00:00:00.82 bitrate=   5.5kbits/s speed=0.0231x elapsed=0:00:35.54    \nframe=   43 fps=1.2 q=50.0 size=       1KiB time=00:00:00.84 bitrate=   5.4kbits/s speed=0.0233x elapsed=0:00:36.06    \nframe=   44 fps=1.2 q=46.0 size=       1KiB time=00:00:00.86 bitrate=   5.2kbits/s speed=0.0235x elapsed=0:00:36.58    \nframe=   44 fps=1.2 q=46.0 size=       1KiB time=00:00:00.86 bitrate=   5.2kbits/s speed=0.0232x elapsed=0:00:37.14    \nframe=   45 fps=1.2 q=48.0 size=       1KiB time=00:00:00.88 bitrate=   5.1kbits/s speed=0.0233x elapsed=0:00:37.73    \nframe=   46 fps=1.2 q=46.0 size=       1KiB time=00:00:00.90 bitrate=   5.0kbits/s speed=0.0235x elapsed=0:00:38.27    \nframe=   47 fps=1.2 q=50.0 size=       1KiB time=00:00:00.92 bitrate=   4.9kbits/s speed=0.0237x elapsed=0:00:38.82    \nframe=   48 fps=1.2 q=47.0 size=       1KiB time=00:00:00.94 bitrate=   4.8kbits/s speed=0.0238x elapsed=0:00:39.42    \nframe=   49 fps=1.2 q=31.0 size=       1KiB time=00:00:00.96 bitrate=   4.7kbits/s speed=0.024x elapsed=0:00:39.98    \nframe=   49 fps=1.2 q=31.0 size=       1KiB time=00:00:00.96 bitrate=   4.7kbits/s speed=0.0237x elapsed=0:00:40.53    \nframe=   50 fps=1.2 q=47.0 size=       1KiB time=00:00:00.98 bitrate=   4.6kbits/s speed=0.0239x elapsed=0:00:41.07    \nframe=   51 fps=1.2 q=50.0 size=       1KiB time=00:00:00.98 bitrate=   4.6kbits/s speed=0.0236x elapsed=0:00:41.59    \nframe=   52 fps=1.2 q=48.0 size=       1KiB time=00:00:01.02 bitrate=   4.4kbits/s speed=0.0242x elapsed=0:00:42.15    \nframe=   53 fps=1.2 q=48.0 size=       1KiB time=00:00:01.04 bitrate=   4.3kbits/s speed=0.0244x elapsed=0:00:42.67    \nframe=   54 fps=1.3 q=48.0 size=       1KiB time=00:00:01.06 bitrate=   4.2kbits/s speed=0.0245x elapsed=0:00:43.19    \nframe=   55 fps=1.3 q=50.0 size=       1KiB time=00:00:01.08 bitrate=   4.2kbits/s speed=0.0247x elapsed=0:00:43.79    \nframe=   55 fps=1.2 q=50.0 size=       1KiB time=00:00:01.08 bitrate=   4.2kbits/s speed=0.0243x elapsed=0:00:44.36    \nframe=   56 fps=1.2 q=48.0 size=       1KiB time=00:00:01.10 bitrate=   4.1kbits/s speed=0.0245x elapsed=0:00:44.90    \nframe=   56 fps=1.2 q=48.0 size=       1KiB time=00:00:01.10 bitrate=   4.1kbits/s speed=0.0242x elapsed=0:00:45.46    \nframe=   57 fps=1.2 q=42.0 size=       1KiB time=00:00:01.12 bitrate=   4.0kbits/s speed=0.0243x elapsed=0:00:46.03    \nframe=   58 fps=1.2 q=48.0 size=       1KiB time=00:00:01.14 bitrate=   3.9kbits/s speed=0.0245x elapsed=0:00:46.59    \nframe=   60 fps=1.3 q=48.0 size=       1KiB time=00:00:01.18 bitrate=   3.8kbits/s speed=0.025x elapsed=0:00:47.13    \nframe=   60 fps=1.3 q=48.0 size=       1KiB time=00:00:01.18 bitrate=   3.8kbits/s speed=0.0247x elapsed=0:00:47.67    \nframe=   62 fps=1.3 q=48.0 size=       1KiB time=00:00:01.22 bitrate=   3.7kbits/s speed=0.0253x elapsed=0:00:48.22    \nframe=   63 fps=1.3 q=48.0 size=       1KiB time=00:00:01.24 bitrate=   3.6kbits/s speed=0.0254x elapsed=0:00:48.80    \nframe=   64 fps=1.3 q=48.0 size=       1KiB time=00:00:01.26 bitrate=   3.6kbits/s speed=0.0255x elapsed=0:00:49.34    \nframe=   64 fps=1.3 q=48.0 size=       1KiB time=00:00:01.26 bitrate=   3.6kbits/s speed=0.0252x elapsed=0:00:49.91    \nframe=   64 fps=1.3 q=48.0 size=       1KiB time=00:00:01.26 bitrate=   3.6kbits/s speed=0.025x elapsed=0:00:50.46    \nframe=   65 fps=1.3 q=28.0 size=       1KiB time=00:00:01.28 bitrate=   3.5kbits/s speed=0.0251x elapsed=0:00:51.02    \nframe=   66 fps=1.3 q=50.0 size=       1KiB time=00:00:01.28 bitrate=   3.5kbits/s speed=0.0248x elapsed=0:00:51.62    \nframe=   66 fps=1.3 q=50.0 size=       1KiB time=00:00:01.30 bitrate=   3.5kbits/s speed=0.0249x elapsed=0:00:52.16    \nframe=   67 fps=1.3 q=49.0 size=       1KiB time=00:00:01.32 bitrate=   3.4kbits/s speed=0.025x elapsed=0:00:52.70    \nframe=   67 fps=1.3 q=49.0 size=       1KiB time=00:00:01.32 bitrate=   3.4kbits/s speed=0.0248x elapsed=0:00:53.26    \nframe=   68 fps=1.3 q=46.0 size=       1KiB time=00:00:01.34 bitrate=   3.4kbits/s speed=0.0249x elapsed=0:00:53.79    \nframe=   68 fps=1.3 q=46.0 size=       1KiB time=00:00:01.34 bitrate=   3.4kbits/s speed=0.0247x elapsed=0:00:54.33    \nframe=   69 fps=1.3 q=47.0 size=       1KiB time=00:00:01.36 bitrate=   3.3kbits/s speed=0.0248x elapsed=0:00:54.88    \nframe=   70 fps=1.3 q=49.0 size=       1KiB time=00:00:01.38 bitrate=   3.3kbits/s speed=0.0249x elapsed=0:00:55.41    \nframe=   70 fps=1.3 q=49.0 size=       1KiB time=00:00:01.38 bitrate=   3.3kbits/s speed=0.0247x elapsed=0:00:55.95    \nframe=   71 fps=1.3 q=46.0 size=       1KiB time=00:00:01.40 bitrate=   3.2kbits/s speed=0.0248x elapsed=0:00:56.46    \nframe=   71 fps=1.2 q=46.0 size=       1KiB time=00:00:01.40 bitrate=   3.2kbits/s speed=0.0246x elapsed=0:00:56.98    \nframe=   72 fps=1.3 q=49.0 size=       1KiB time=00:00:01.42 bitrate=   3.2kbits/s speed=0.0247x elapsed=0:00:57.51    \nframe=   72 fps=1.2 q=49.0 size=       1KiB time=00:00:01.42 bitrate=   3.2kbits/s speed=0.0245x elapsed=0:00:58.03    \nframe=   74 fps=1.3 q=51.0 size=       1KiB time=00:00:01.46 bitrate=   3.1kbits/s speed=0.0249x elapsed=0:00:58.56    \nframe=   75 fps=1.3 q=49.0 size=       1KiB time=00:00:01.48 bitrate=   3.0kbits/s speed=0.025x elapsed=0:00:59.08    \nframe=   75 fps=1.3 q=49.0 size=       1KiB time=00:00:01.48 bitrate=   3.0kbits/s speed=0.0248x elapsed=0:00:59.63    \nframe=   76 fps=1.3 q=48.0 size=       1KiB time=00:00:01.50 bitrate=   3.0kbits/s speed=0.0249x elapsed=0:01:00.16    \nframe=   77 fps=1.3 q=45.0 size=       1KiB time=00:00:01.52 bitrate=   3.0kbits/s speed=0.025x elapsed=0:01:00.71    \nframe=   78 fps=1.3 q=50.0 size=       1KiB time=00:00:01.54 bitrate=   2.9kbits/s speed=0.0251x elapsed=0:01:01.24    \nframe=   80 fps=1.3 q=50.0 size=       1KiB time=00:00:01.58 bitrate=   2.8kbits/s speed=0.0256x elapsed=0:01:01.82    \nframe=   80 fps=1.3 q=50.0 size=       1KiB time=00:00:01.58 bitrate=   2.8kbits/s speed=0.0253x elapsed=0:01:02.37    \nframe=   81 fps=1.3 q=31.0 size=       1KiB time=00:00:01.60 bitrate=   2.8kbits/s speed=0.0254x elapsed=0:01:02.94    \nframe=   82 fps=1.3 q=51.0 size=       1KiB time=00:00:01.62 bitrate=   2.8kbits/s speed=0.0255x elapsed=0:01:03.51    \nframe=   83 fps=1.3 q=50.0 size=       1KiB time=00:00:01.64 bitrate=   2.7kbits/s speed=0.0256x elapsed=0:01:04.07    \nframe=   83 fps=1.3 q=50.0 size=       1KiB time=00:00:01.64 bitrate=   2.7kbits/s speed=0.0254x elapsed=0:01:04.61    \nframe=   84 fps=1.3 q=51.0 size=       1KiB time=00:00:01.66 bitrate=   2.7kbits/s speed=0.0255x elapsed=0:01:05.14    \nframe=   85 fps=1.3 q=48.0 size=       1KiB time=00:00:01.68 bitrate=   2.7kbits/s speed=0.0256x elapsed=0:01:05.69    \nframe=   86 fps=1.3 q=50.0 size=       1KiB time=00:00:01.70 bitrate=   2.6kbits/s speed=0.0257x elapsed=0:01:06.24    \nframe=   86 fps=1.3 q=50.0 size=       1KiB time=00:00:01.70 bitrate=   2.6kbits/s speed=0.0255x elapsed=0:01:06.76    \nframe=   87 fps=1.3 q=47.0 size=       1KiB time=00:00:01.72 bitrate=   2.6kbits/s speed=0.0256x elapsed=0:01:07.29    \nframe=   88 fps=1.3 q=50.0 size=       1KiB time=00:00:01.74 bitrate=   2.6kbits/s speed=0.0257x elapsed=0:01:07.82    \nframe=   89 fps=1.3 q=44.0 size=       1KiB time=00:00:01.76 bitrate=   2.6kbits/s speed=0.0257x elapsed=0:01:08.37    \nframe=   90 fps=1.3 q=51.0 size=       1KiB time=00:00:01.78 bitrate=   2.5kbits/s speed=0.0258x elapsed=0:01:08.89    \nframe=   91 fps=1.3 q=49.0 size=       1KiB time=00:00:01.80 bitrate=   2.5kbits/s speed=0.0259x elapsed=0:01:09.46    \nframe=   91 fps=1.3 q=49.0 size=       1KiB time=00:00:01.80 bitrate=   2.5kbits/s speed=0.0257x elapsed=0:01:09.99    \nframe=   92 fps=1.3 q=49.0 size=       1KiB time=00:00:01.82 bitrate=   2.5kbits/s speed=0.0258x elapsed=0:01:10.50    \nframe=   94 fps=1.3 q=51.0 size=       1KiB time=00:00:01.86 bitrate=   2.4kbits/s speed=0.0262x elapsed=0:01:11.03    \nframe=   95 fps=1.3 q=49.0 size=       1KiB time=00:00:01.88 bitrate=   2.4kbits/s speed=0.0263x elapsed=0:01:11.58    \nframe=   96 fps=1.3 q=51.0 size=       1KiB time=00:00:01.90 bitrate=   2.4kbits/s speed=0.0263x elapsed=0:01:12.13    \nframe=   99 fps=1.4 q=51.0 size=       1KiB time=00:00:01.94 bitrate=   2.3kbits/s speed=0.0267x elapsed=0:01:12.72    \nframe=   99 fps=1.4 q=51.0 size=       1KiB time=00:00:01.96 bitrate=   2.3kbits/s speed=0.0267x elapsed=0:01:13.28    \nframe=  100 fps=1.4 q=52.0 size=       1KiB time=00:00:01.98 bitrate=   2.3kbits/s speed=0.0268x elapsed=0:01:13.79    \nframe=  101 fps=1.4 q=49.0 size=       1KiB time=00:00:02.00 bitrate=   2.2kbits/s speed=0.0269x elapsed=0:01:14.34    \nframe=  102 fps=1.4 q=50.0 size=       1KiB time=00:00:02.02 bitrate=   2.2kbits/s speed=0.027x elapsed=0:01:14.89    \nframe=  102 fps=1.4 q=50.0 size=       1KiB time=00:00:02.02 bitrate=   2.2kbits/s speed=0.0268x elapsed=0:01:15.42    \nframe=  103 fps=1.4 q=47.0 size=       1KiB time=00:00:02.04 bitrate=   2.2kbits/s speed=0.0269x elapsed=0:01:15.93    \nframe=  104 fps=1.4 q=50.0 size=       1KiB time=00:00:02.04 bitrate=   2.2kbits/s speed=0.0267x elapsed=0:01:16.45    \nframe=  106 fps=1.4 q=52.0 size=       1KiB time=00:00:02.10 bitrate=   2.1kbits/s speed=0.0273x elapsed=0:01:16.98    \nframe=  106 fps=1.4 q=52.0 size=       1KiB time=00:00:02.10 bitrate=   2.1kbits/s speed=0.0271x elapsed=0:01:17.50    \nframe=  107 fps=1.4 q=50.0 size=       1KiB time=00:00:02.12 bitrate=   2.1kbits/s speed=0.0272x elapsed=0:01:18.02    \nframe=  107 fps=1.4 q=50.0 size=       1KiB time=00:00:02.12 bitrate=   2.1kbits/s speed=0.027x elapsed=0:01:18.58    \nframe=  108 fps=1.4 q=51.0 size=       1KiB time=00:00:02.14 bitrate=   2.1kbits/s speed=0.027x elapsed=0:01:19.11    \nframe=  109 fps=1.4 q=46.0 size=       1KiB time=00:00:02.16 bitrate=   2.1kbits/s speed=0.0271x elapsed=0:01:19.67    \nframe=  111 fps=1.4 q=49.0 size=       1KiB time=00:00:02.20 bitrate=   2.0kbits/s speed=0.0274x elapsed=0:01:20.19    \nframe=  112 fps=1.4 q=52.0 size=       1KiB time=00:00:02.22 bitrate=   2.0kbits/s speed=0.0275x elapsed=0:01:20.71    \nframe=  115 fps=1.4 q=51.0 size=       1KiB time=00:00:02.28 bitrate=   2.0kbits/s speed=0.0281x elapsed=0:01:21.24    \nframe=  115 fps=1.4 q=51.0 size=       1KiB time=00:00:02.28 bitrate=   2.0kbits/s speed=0.0279x elapsed=0:01:21.78    \nframe=  117 fps=1.4 q=49.0 size=       1KiB time=00:00:02.32 bitrate=   1.9kbits/s speed=0.0282x elapsed=0:01:22.30    \nframe=  118 fps=1.4 q=53.0 size=       1KiB time=00:00:02.34 bitrate=   1.9kbits/s speed=0.0282x elapsed=0:01:22.83    \nframe=  118 fps=1.4 q=53.0 size=       1KiB time=00:00:02.34 bitrate=   1.9kbits/s speed=0.0281x elapsed=0:01:23.36    \nframe=  119 fps=1.4 q=48.0 size=       1KiB time=00:00:02.36 bitrate=   1.9kbits/s speed=0.0281x elapsed=0:01:23.88    \nframe=  119 fps=1.4 q=48.0 size=       1KiB time=00:00:02.36 bitrate=   1.9kbits/s speed=0.028x elapsed=0:01:24.39    \nframe=  120 fps=1.4 q=53.0 size=       1KiB time=00:00:02.38 bitrate=   1.9kbits/s speed=0.028x elapsed=0:01:24.92    \nframe=  122 fps=1.4 q=53.0 size=       1KiB time=00:00:02.42 bitrate=   1.9kbits/s speed=0.0283x elapsed=0:01:25.44    \nframe=  123 fps=1.4 q=50.0 size=       1KiB time=00:00:02.44 bitrate=   1.8kbits/s speed=0.0284x elapsed=0:01:25.97    \nframe=  123 fps=1.4 q=50.0 size=       1KiB time=00:00:02.44 bitrate=   1.8kbits/s speed=0.0282x elapsed=0:01:26.52    \nframe=  124 fps=1.4 q=53.0 size=       1KiB time=00:00:02.46 bitrate=   1.8kbits/s speed=0.0283x elapsed=0:01:27.06    \nframe=  125 fps=1.4 q=47.0 size=       1KiB time=00:00:02.48 bitrate=   1.8kbits/s speed=0.0283x elapsed=0:01:27.59    \nframe=  127 fps=1.4 q=50.0 size=       1KiB time=00:00:02.52 bitrate=   1.8kbits/s speed=0.0286x elapsed=0:01:28.12    \nframe=  128 fps=1.4 q=54.0 size=       1KiB time=00:00:02.54 bitrate=   1.8kbits/s speed=0.0287x elapsed=0:01:28.65    \nframe=  130 fps=1.5 q=54.0 size=       1KiB time=00:00:02.58 bitrate=   1.7kbits/s speed=0.0289x elapsed=0:01:29.16    \nframe=  132 fps=1.5 q=54.0 size=       1KiB time=00:00:02.62 bitrate=   1.7kbits/s speed=0.0292x elapsed=0:01:29.71    \nframe=  134 fps=1.5 q=54.0 size=       1KiB time=00:00:02.66 bitrate=   1.7kbits/s speed=0.0295x elapsed=0:01:30.23    \nframe=  134 fps=1.5 q=54.0 size=       1KiB time=00:00:02.66 bitrate=   1.7kbits/s speed=0.0293x elapsed=0:01:30.76    \nframe=  135 fps=1.5 q=49.0 size=       1KiB time=00:00:02.68 bitrate=   1.7kbits/s speed=0.0294x elapsed=0:01:31.29    \nframe=  135 fps=1.5 q=49.0 size=       1KiB time=00:00:02.68 bitrate=   1.7kbits/s speed=0.0292x elapsed=0:01:31.84    \nframe=  136 fps=1.5 q=54.0 size=       1KiB time=00:00:02.70 bitrate=   1.7kbits/s speed=0.0292x elapsed=0:01:32.38    \nframe=  138 fps=1.5 q=54.0 size=       1KiB time=00:00:02.74 bitrate=   1.6kbits/s speed=0.0295x elapsed=0:01:32.94    \nframe=  139 fps=1.5 q=51.0 size=       1KiB time=00:00:02.76 bitrate=   1.6kbits/s speed=0.0295x elapsed=0:01:33.48    \nframe=  139 fps=1.5 q=51.0 size=       1KiB time=00:00:02.76 bitrate=   1.6kbits/s speed=0.0293x elapsed=0:01:34.03    \nframe=  141 fps=1.5 q=48.0 size=       1KiB time=00:00:02.78 bitrate=   1.6kbits/s speed=0.0294x elapsed=0:01:34.54    \nframe=  141 fps=1.5 q=48.0 size=       1KiB time=00:00:02.80 bitrate=   1.6kbits/s speed=0.0294x elapsed=0:01:35.14    \nframe=  142 fps=1.5 q=55.0 size=       1KiB time=00:00:02.82 bitrate=   1.6kbits/s speed=0.0295x elapsed=0:01:35.70    \nframe=  143 fps=1.5 q=51.0 size=       1KiB time=00:00:02.84 bitrate=   1.6kbits/s speed=0.0295x elapsed=0:01:36.29    \nframe=  143 fps=1.5 q=51.0 size=       1KiB time=00:00:02.84 bitrate=   1.6kbits/s speed=0.0293x elapsed=0:01:36.86    \nframe=  145 fps=1.5 q=35.0 size=       1KiB time=00:00:02.88 bitrate=   1.6kbits/s speed=0.0296x elapsed=0:01:37.44    \nframe=  147 fps=1.5 q=53.0 size=       1KiB time=00:00:02.92 bitrate=   1.5kbits/s speed=0.0298x elapsed=0:01:38.01    \nframe=  148 fps=1.5 q=55.0 size=       1KiB time=00:00:02.94 bitrate=   1.5kbits/s speed=0.0298x elapsed=0:01:38.56    \nframe=  149 fps=1.5 q=51.0 size=       1KiB time=00:00:02.96 bitrate=   1.5kbits/s speed=0.0299x elapsed=0:01:39.09    \nframe=  150 fps=1.5 q=55.0 size=       1KiB time=00:00:02.98 bitrate=   1.5kbits/s speed=0.0299x elapsed=0:01:39.62    \nframe=  150 fps=1.5 q=55.0 size=       1KiB time=00:00:02.98 bitrate=   1.5kbits/s speed=0.0298x elapsed=0:01:40.14    \nframe=  151 fps=1.5 q=50.0 size=       1KiB time=00:00:03.00 bitrate=   1.5kbits/s speed=0.0298x elapsed=0:01:40.66    \nframe=  151 fps=1.5 q=50.0 size=       1KiB time=00:00:03.00 bitrate=   1.5kbits/s speed=0.0296x elapsed=0:01:41.22    \nframe=  153 fps=1.5 q=47.0 size=       1KiB time=00:00:03.04 bitrate=   1.5kbits/s speed=0.0299x elapsed=0:01:41.73    \nframe=  155 fps=1.5 q=52.0 size=       1KiB time=00:00:03.08 bitrate=   1.5kbits/s speed=0.0301x elapsed=0:01:42.26    \nframe=  155 fps=1.5 q=52.0 size=       1KiB time=00:00:03.08 bitrate=   1.5kbits/s speed=0.03x elapsed=0:01:42.78    \nframe=  156 fps=1.5 q=54.0 size=       1KiB time=00:00:03.10 bitrate=   1.5kbits/s speed=0.03x elapsed=0:01:43.32    \nframe=  159 fps=1.5 q=51.0 size=       1KiB time=00:00:03.16 bitrate=   1.4kbits/s speed=0.0304x elapsed=0:01:43.84    \nframe=  160 fps=1.5 q=54.0 size=       1KiB time=00:00:03.18 bitrate=   1.4kbits/s speed=0.0305x elapsed=0:01:44.40    \nframe=  162 fps=1.5 q=54.0 size=       1KiB time=00:00:03.22 bitrate=   1.4kbits/s speed=0.0307x elapsed=0:01:44.96    \nframe=  163 fps=1.5 q=53.0 size=       1KiB time=00:00:03.24 bitrate=   1.4kbits/s speed=0.0307x elapsed=0:01:45.54    \nframe=  163 fps=1.5 q=53.0 size=       1KiB time=00:00:03.24 bitrate=   1.4kbits/s speed=0.0305x elapsed=0:01:46.16    \nframe=  165 fps=1.5 q=51.0 size=       1KiB time=00:00:03.28 bitrate=   1.4kbits/s speed=0.0307x elapsed=0:01:46.72    \nframe=  166 fps=1.5 q=54.0 size=       1KiB time=00:00:03.30 bitrate=   1.4kbits/s speed=0.0308x elapsed=0:01:47.28    \nframe=  166 fps=1.5 q=54.0 size=       1KiB time=00:00:03.30 bitrate=   1.4kbits/s speed=0.0306x elapsed=0:01:47.87    \nframe=  166 fps=1.5 q=54.0 size=       1KiB time=00:00:03.30 bitrate=   1.4kbits/s speed=0.0304x elapsed=0:01:48.41    \nframe=  167 fps=1.5 q=49.0 size=       1KiB time=00:00:03.32 bitrate=   1.4kbits/s speed=0.0305x elapsed=0:01:48.95    \nframe=  167 fps=1.5 q=49.0 size=       1KiB time=00:00:03.32 bitrate=   1.4kbits/s speed=0.0303x elapsed=0:01:49.54    \nframe=  169 fps=1.5 q=48.0 size=       1KiB time=00:00:03.36 bitrate=   1.3kbits/s speed=0.0305x elapsed=0:01:50.08    \nframe=  170 fps=1.5 q=54.0 size=       1KiB time=00:00:03.38 bitrate=   1.3kbits/s speed=0.0306x elapsed=0:01:50.59    \nframe=  171 fps=1.5 q=51.0 size=       1KiB time=00:00:03.40 bitrate=   1.3kbits/s speed=0.0306x elapsed=0:01:51.12    \nframe=  172 fps=1.5 q=54.0 size=       1KiB time=00:00:03.40 bitrate=   1.3kbits/s speed=0.0304x elapsed=0:01:51.66    \nframe=  175 fps=1.6 q=51.0 size=       1KiB time=00:00:03.46 bitrate=   1.3kbits/s speed=0.0308x elapsed=0:01:52.50    \nframe=  178 fps=1.6 q=54.0 size=       1KiB time=00:00:03.54 bitrate=   1.3kbits/s speed=0.0313x elapsed=0:01:53.26    \nframe=  179 fps=1.6 q=53.0 size=       1KiB time=00:00:03.56 bitrate=   1.3kbits/s speed=0.0312x elapsed=0:01:54.02    \nframe=  180 fps=1.6 q=54.0 size=       1KiB time=00:00:03.58 bitrate=   1.3kbits/s speed=0.0312x elapsed=0:01:54.70    \nframe=  181 fps=1.6 q=51.0 size=       1KiB time=00:00:03.60 bitrate=   1.2kbits/s speed=0.0312x elapsed=0:01:55.23    \nframe=  182 fps=1.6 q=54.0 size=       1KiB time=00:00:03.62 bitrate=   1.2kbits/s speed=0.0313x elapsed=0:01:55.73    \nframe=  182 fps=1.6 q=54.0 size=       1KiB time=00:00:03.62 bitrate=   1.2kbits/s speed=0.0311x elapsed=0:01:56.31    \nframe=  183 fps=1.6 q=49.0 size=       1KiB time=00:00:03.64 bitrate=   1.2kbits/s speed=0.0311x elapsed=0:01:56.85    \nframe=  183 fps=1.6 q=49.0 size=       1KiB time=00:00:03.64 bitrate=   1.2kbits/s speed=0.031x elapsed=0:01:57.39    \nframe=  183 fps=1.6 q=49.0 size=       1KiB time=00:00:03.64 bitrate=   1.2kbits/s speed=0.0309x elapsed=0:01:57.98    \nframe=  185 fps=1.6 q=47.0 size=       1KiB time=00:00:03.68 bitrate=   1.2kbits/s speed=0.031x elapsed=0:01:58.59    \nframe=  186 fps=1.6 q=54.0 size=       1KiB time=00:00:03.70 bitrate=   1.2kbits/s speed=0.031x elapsed=0:01:59.19    \nframe=  187 fps=1.6 q=51.0 size=       1KiB time=00:00:03.72 bitrate=   1.2kbits/s speed=0.0311x elapsed=0:01:59.73    \nframe=  188 fps=1.6 q=54.0 size=       1KiB time=00:00:03.74 bitrate=   1.2kbits/s speed=0.0311x elapsed=0:02:00.34    \nframe=  188 fps=1.6 q=54.0 size=       1KiB time=00:00:03.74 bitrate=   1.2kbits/s speed=0.0309x elapsed=0:02:00.89    \nframe=  191 fps=1.6 q=51.0 size=       1KiB time=00:00:03.80 bitrate=   1.2kbits/s speed=0.0313x elapsed=0:02:01.49    \nframe=  191 fps=1.6 q=51.0 size=       1KiB time=00:00:03.80 bitrate=   1.2kbits/s speed=0.0311x elapsed=0:02:02.11    \nframe=  194 fps=1.6 q=54.0 size=       1KiB time=00:00:03.86 bitrate=   1.2kbits/s speed=0.0315x elapsed=0:02:02.66    \nframe=  195 fps=1.6 q=53.0 size=       1KiB time=00:00:03.88 bitrate=   1.2kbits/s speed=0.0315x elapsed=0:02:03.30    \nframe=  195 fps=1.6 q=53.0 size=       1KiB time=00:00:03.88 bitrate=   1.2kbits/s speed=0.0313x elapsed=0:02:03.84    \nframe=  196 fps=1.6 q=52.0 size=       1KiB time=00:00:03.90 bitrate=   1.2kbits/s speed=0.0313x elapsed=0:02:04.45    \nframe=  197 fps=1.6 q=51.0 size=       1KiB time=00:00:03.92 bitrate=   1.1kbits/s speed=0.0313x elapsed=0:02:05.08    \nframe=  198 fps=1.6 q=52.0 size=       1KiB time=00:00:03.94 bitrate=   1.1kbits/s speed=0.0314x elapsed=0:02:05.59    \nframe=  198 fps=1.6 q=52.0 size=       1KiB time=00:00:03.94 bitrate=   1.1kbits/s speed=0.0312x elapsed=0:02:06.12    \nframe=  199 fps=1.6 q=48.0 size=       1KiB time=00:00:03.96 bitrate=   1.1kbits/s speed=0.0313x elapsed=0:02:06.63    \nframe=  199 fps=1.6 q=48.0 size=       1KiB time=00:00:03.96 bitrate=   1.1kbits/s speed=0.0311x elapsed=0:02:07.14    \nframe=  200 fps=1.6 q=51.0 size=       1KiB time=00:00:03.98 bitrate=   1.1kbits/s speed=0.0312x elapsed=0:02:07.66    \nframe=  202 fps=1.6 q=53.0 size=       1KiB time=00:00:04.02 bitrate=   1.1kbits/s speed=0.0314x elapsed=0:02:08.17    \nframe=  202 fps=1.6 q=53.0 size=       1KiB time=00:00:04.02 bitrate=   1.1kbits/s speed=0.0312x elapsed=0:02:08.69    \nframe=  203 fps=1.6 q=51.0 size=       1KiB time=00:00:04.04 bitrate=   1.1kbits/s speed=0.0313x elapsed=0:02:09.21    \nframe=  203 fps=1.6 q=51.0 size=       1KiB time=00:00:04.04 bitrate=   1.1kbits/s speed=0.0311x elapsed=0:02:09.72    \nframe=  204 fps=1.6 q=53.0 size=       1KiB time=00:00:04.06 bitrate=   1.1kbits/s speed=0.0312x elapsed=0:02:10.23    \nframe=  205 fps=1.6 q=47.0 size=       1KiB time=00:00:04.08 bitrate=   1.1kbits/s speed=0.0312x elapsed=0:02:10.76    \nframe=  208 fps=1.6 q=53.0 size=       1KiB time=00:00:04.14 bitrate=   1.1kbits/s speed=0.0315x elapsed=0:02:11.26    \nframe=  208 fps=1.6 q=53.0 size=       1KiB time=00:00:04.14 bitrate=   1.1kbits/s speed=0.0314x elapsed=0:02:11.78    \nframe=  209 fps=1.6 q=38.0 size=       1KiB time=00:00:04.16 bitrate=   1.1kbits/s speed=0.0314x elapsed=0:02:12.30    \nframe=  210 fps=1.6 q=53.0 size=       1KiB time=00:00:04.18 bitrate=   1.1kbits/s speed=0.0315x elapsed=0:02:12.81    \nframe=  210 fps=1.6 q=53.0 size=       1KiB time=00:00:04.18 bitrate=   1.1kbits/s speed=0.0313x elapsed=0:02:13.33    \nframe=  211 fps=1.6 q=52.0 size=       1KiB time=00:00:04.20 bitrate=   1.1kbits/s speed=0.0314x elapsed=0:02:13.84    \nframe=  211 fps=1.6 q=52.0 size=       1KiB time=00:00:04.20 bitrate=   1.1kbits/s speed=0.0313x elapsed=0:02:14.36    \nframe=  212 fps=1.6 q=53.0 size=       1KiB time=00:00:04.22 bitrate=   1.1kbits/s speed=0.0313x elapsed=0:02:14.88    \nframe=  214 fps=1.6 q=53.0 size=       1KiB time=00:00:04.26 bitrate=   1.1kbits/s speed=0.0315x elapsed=0:02:15.39    \nframe=  214 fps=1.6 q=53.0 size=       1KiB time=00:00:04.26 bitrate=   1.1kbits/s speed=0.0313x elapsed=0:02:15.90    \nframe=  215 fps=1.6 q=52.0 size=       1KiB time=00:00:04.28 bitrate=   1.1kbits/s speed=0.0314x elapsed=0:02:16.42    \nframe=  216 fps=1.6 q=53.0 size=       1KiB time=00:00:04.30 bitrate=   1.0kbits/s speed=0.0314x elapsed=0:02:16.93    \nframe=  218 fps=1.6 q=53.0 size=       1KiB time=00:00:04.34 bitrate=   1.0kbits/s speed=0.0316x elapsed=0:02:17.45    \nframe=  219 fps=1.6 q=50.0 size=       1KiB time=00:00:04.36 bitrate=   1.0kbits/s speed=0.0316x elapsed=0:02:17.97    \nframe=  220 fps=1.6 q=53.0 size=       1KiB time=00:00:04.38 bitrate=   1.0kbits/s speed=0.0316x elapsed=0:02:18.48    \nframe=  223 fps=1.6 q=49.0 size=       1KiB time=00:00:04.44 bitrate=   1.0kbits/s speed=0.0319x elapsed=0:02:19.01    \nframe=  224 fps=1.6 q=53.0 size=       1KiB time=00:00:04.46 bitrate=   1.0kbits/s speed=0.032x elapsed=0:02:19.53    \nframe=  226 fps=1.6 q=53.0 size=       1KiB time=00:00:04.50 bitrate=   1.0kbits/s speed=0.0321x elapsed=0:02:20.06    \nframe=  227 fps=1.6 q=51.0 size=       1KiB time=00:00:04.52 bitrate=   1.0kbits/s speed=0.0322x elapsed=0:02:20.56    \nframe=  227 fps=1.6 q=51.0 size=       1KiB time=00:00:04.52 bitrate=   1.0kbits/s speed=0.032x elapsed=0:02:21.08    \nframe=  228 fps=1.6 q=53.0 size=       1KiB time=00:00:04.54 bitrate=   1.0kbits/s speed=0.0321x elapsed=0:02:21.60    \nframe=  230 fps=1.6 q=53.0 size=       1KiB time=00:00:04.58 bitrate=   1.0kbits/s speed=0.0322x elapsed=0:02:22.11    \nframe=  230 fps=1.6 q=53.0 size=       1KiB time=00:00:04.58 bitrate=   1.0kbits/s speed=0.0321x elapsed=0:02:22.63    \nframe=  231 fps=1.6 q=47.0 size=       1KiB time=00:00:04.60 bitrate=   1.0kbits/s speed=0.0321x elapsed=0:02:23.15    \nframe=  231 fps=1.6 q=47.0 size=       1KiB time=00:00:04.60 bitrate=   1.0kbits/s speed=0.032x elapsed=0:02:23.66    \nframe=  231 fps=1.6 q=47.0 size=       1KiB time=00:00:04.60 bitrate=   1.0kbits/s speed=0.0319x elapsed=0:02:24.17    \nframe=  232 fps=1.6 q=53.0 size=       1KiB time=00:00:04.62 bitrate=   1.0kbits/s speed=0.0319x elapsed=0:02:24.68    \nframe=  234 fps=1.6 q=53.0 size=       1KiB time=00:00:04.66 bitrate=   1.0kbits/s speed=0.0321x elapsed=0:02:25.20    \nframe=  235 fps=1.6 q=50.0 size=       1KiB time=00:00:04.68 bitrate=   1.0kbits/s speed=0.0321x elapsed=0:02:25.71    \nframe=  236 fps=1.6 q=53.0 size=       1KiB time=00:00:04.70 bitrate=   1.0kbits/s speed=0.0321x elapsed=0:02:26.24    \nframe=  238 fps=1.6 q=53.0 size=       1KiB time=00:00:04.74 bitrate=   0.9kbits/s speed=0.0323x elapsed=0:02:26.76    \nframe=  239 fps=1.6 q=50.0 size=       1KiB time=00:00:04.76 bitrate=   0.9kbits/s speed=0.0323x elapsed=0:02:27.27    \nframe=  241 fps=1.6 q=34.0 size=       1KiB time=00:00:04.80 bitrate=   0.9kbits/s speed=0.0325x elapsed=0:02:27.78    \nframe=  243 fps=1.6 q=51.0 size=       1KiB time=00:00:04.84 bitrate=   0.9kbits/s speed=0.0326x elapsed=0:02:28.30    \nframe=  243 fps=1.6 q=51.0 size=       1KiB time=00:00:04.84 bitrate=   0.9kbits/s speed=0.0325x elapsed=0:02:28.81    \nframe=  244 fps=1.6 q=53.0 size=       1KiB time=00:00:04.86 bitrate=   0.9kbits/s speed=0.0325x elapsed=0:02:29.34    \nframe=  245 fps=1.6 q=49.0 size=       1KiB time=00:00:04.88 bitrate=   0.9kbits/s speed=0.0326x elapsed=0:02:29.85    \nframe=  246 fps=1.6 q=53.0 size=       1KiB time=00:00:04.90 bitrate=   0.9kbits/s speed=0.0326x elapsed=0:02:30.37    \nframe=  246 fps=1.6 q=53.0 size=       1KiB time=00:00:04.90 bitrate=   0.9kbits/s speed=0.0325x elapsed=0:02:30.87    \nframe=  247 fps=1.6 q=47.0 size=       1KiB time=00:00:04.92 bitrate=   0.9kbits/s speed=0.0325x elapsed=0:02:31.39    \nframe=  247 fps=1.6 q=47.0 size=       1KiB time=00:00:04.92 bitrate=   0.9kbits/s speed=0.0324x elapsed=0:02:31.91    \nframe=  247 fps=1.6 q=47.0 size=       1KiB time=00:00:04.92 bitrate=   0.9kbits/s speed=0.0323x elapsed=0:02:32.43    \nframe=  250 fps=1.6 q=53.0 size=       1KiB time=00:00:04.98 bitrate=   0.9kbits/s speed=0.0326x elapsed=0:02:32.94    \nframe=  250 fps=1.6 q=53.0 size=       1KiB time=00:00:04.98 bitrate=   0.9kbits/s speed=0.0325x elapsed=0:02:33.46    \nframe=  251 fps=1.6 q=50.0 size=       1KiB time=00:00:05.00 bitrate=   0.9kbits/s speed=0.0325x elapsed=0:02:33.98    \nframe=  251 fps=1.6 q=50.0 size=       1KiB time=00:00:05.00 bitrate=   0.9kbits/s speed=0.0324x elapsed=0:02:34.48    \nframe=  252 fps=1.6 q=54.0 size=       1KiB time=00:00:05.02 bitrate=   0.9kbits/s speed=0.0324x elapsed=0:02:35.00    \nframe=  253 fps=1.6 q=46.0 size=    1280KiB time=00:00:05.04 bitrate=2080.5kbits/s speed=0.0324x elapsed=0:02:35.52    \nframe=  254 fps=1.6 q=54.0 size=    1280KiB time=00:00:05.06 bitrate=2072.3kbits/s speed=0.0324x elapsed=0:02:36.04    \nframe=  256 fps=1.6 q=54.0 size=    1280KiB time=00:00:05.10 bitrate=2056.0kbits/s speed=0.0326x elapsed=0:02:36.55    \nframe=  257 fps=1.6 q=34.0 size=    1280KiB time=00:00:05.12 bitrate=2048.0kbits/s speed=0.0326x elapsed=0:02:37.06    \nframe=  259 fps=1.6 q=52.0 size=    1280KiB time=00:00:05.16 bitrate=2032.1kbits/s speed=0.0327x elapsed=0:02:37.59    \nframe=  259 fps=1.6 q=52.0 size=    1280KiB time=00:00:05.16 bitrate=2032.1kbits/s speed=0.0326x elapsed=0:02:38.09    \nframe=  261 fps=1.6 q=50.0 size=    1280KiB time=00:00:05.18 bitrate=2024.3kbits/s speed=0.0327x elapsed=0:02:38.61    \nframe=  262 fps=1.6 q=54.0 size=    1280KiB time=00:00:05.22 bitrate=2008.8kbits/s speed=0.0328x elapsed=0:02:39.14    \nframe=  262 fps=1.6 q=54.0 size=    1280KiB time=00:00:05.22 bitrate=2008.8kbits/s speed=0.0327x elapsed=0:02:39.67    \nframe=  263 fps=1.6 q=49.0 size=    1280KiB time=00:00:05.24 bitrate=2001.1kbits/s speed=0.0327x elapsed=0:02:40.19    \nframe=  264 fps=1.6 q=54.0 size=    1280KiB time=00:00:05.26 bitrate=1993.5kbits/s speed=0.0327x elapsed=0:02:40.70    \nframe=  266 fps=1.6 q=54.0 size=    1280KiB time=00:00:05.30 bitrate=1978.4kbits/s speed=0.0329x elapsed=0:02:41.22    \nframe=  267 fps=1.7 q=51.0 size=    1280KiB time=00:00:05.32 bitrate=1971.0kbits/s speed=0.0329x elapsed=0:02:41.76    \nframe=  267 fps=1.6 q=51.0 size=    1280KiB time=00:00:05.32 bitrate=1971.0kbits/s speed=0.0328x elapsed=0:02:42.33    \nframe=  269 fps=1.7 q=48.0 size=    1280KiB time=00:00:05.36 bitrate=1956.3kbits/s speed=0.0329x elapsed=0:02:42.87    \nframe=  271 fps=1.7 q=51.0 size=    1280KiB time=00:00:05.40 bitrate=1941.8kbits/s speed=0.033x elapsed=0:02:43.39    \nframe=  271 fps=1.7 q=51.0 size=    1280KiB time=00:00:05.40 bitrate=1941.8kbits/s speed=0.0329x elapsed=0:02:43.90    \nframe=  272 fps=1.7 q=54.0 size=    1280KiB time=00:00:05.42 bitrate=1934.6kbits/s speed=0.033x elapsed=0:02:44.43    \nframe=  274 fps=1.7 q=54.0 size=    1280KiB time=00:00:05.46 bitrate=1920.5kbits/s speed=0.0331x elapsed=0:02:44.97    \nframe=  275 fps=1.7 q=53.0 size=    1280KiB time=00:00:05.48 bitrate=1913.5kbits/s speed=0.0331x elapsed=0:02:45.49    \nframe=  276 fps=1.7 q=54.0 size=    1280KiB time=00:00:05.50 bitrate=1906.5kbits/s speed=0.0331x elapsed=0:02:46.00    \nframe=  277 fps=1.7 q=51.0 size=    1280KiB time=00:00:05.52 bitrate=1899.6kbits/s speed=0.0331x elapsed=0:02:46.57    \nframe=  278 fps=1.7 q=54.0 size=    1280KiB time=00:00:05.54 bitrate=1892.7kbits/s speed=0.0332x elapsed=0:02:47.10    \nframe=  278 fps=1.7 q=54.0 size=    1280KiB time=00:00:05.54 bitrate=1892.7kbits/s speed=0.033x elapsed=0:02:47.63    \nframe=  279 fps=1.7 q=53.0 size=    1280KiB time=00:00:05.56 bitrate=1885.9kbits/s speed=0.0331x elapsed=0:02:48.22    \nframe=  279 fps=1.7 q=53.0 size=    1280KiB time=00:00:05.56 bitrate=1885.9kbits/s speed=0.0329x elapsed=0:02:48.75    \nframe=  280 fps=1.7 q=54.0 size=    1280KiB time=00:00:05.58 bitrate=1879.2kbits/s speed=0.033x elapsed=0:02:49.27    \nframe=  282 fps=1.7 q=54.0 size=    1280KiB time=00:00:05.62 bitrate=1865.8kbits/s speed=0.0331x elapsed=0:02:49.80    \nframe=  283 fps=1.7 q=51.0 size=    1280KiB time=00:00:05.64 bitrate=1859.2kbits/s speed=0.0331x elapsed=0:02:50.32    \nframe=  284 fps=1.7 q=54.0 size=    1280KiB time=00:00:05.66 bitrate=1852.6kbits/s speed=0.0331x elapsed=0:02:50.83    \nframe=  285 fps=1.7 q=48.0 size=    1280KiB time=00:00:05.68 bitrate=1846.1kbits/s speed=0.0331x elapsed=0:02:51.39    \nframe=  288 fps=1.7 q=54.0 size=    1280KiB time=00:00:05.74 bitrate=1826.8kbits/s speed=0.0334x elapsed=0:02:51.95    \nframe=  288 fps=1.7 q=54.0 size=    1280KiB time=00:00:05.74 bitrate=1826.8kbits/s speed=0.0333x elapsed=0:02:52.47    \nframe=  289 fps=1.7 q=35.0 size=    1280KiB time=00:00:05.76 bitrate=1820.4kbits/s speed=0.0333x elapsed=0:02:52.98    \nframe=  290 fps=1.7 q=54.0 size=    1280KiB time=00:00:05.78 bitrate=1814.1kbits/s speed=0.0333x elapsed=0:02:53.50    \nframe=  291 fps=1.7 q=53.0 size=    1280KiB time=00:00:05.80 bitrate=1807.9kbits/s speed=0.0333x elapsed=0:02:54.04    \nframe=  292 fps=1.7 q=54.0 size=    1280KiB time=00:00:05.82 bitrate=1801.7kbits/s speed=0.0333x elapsed=0:02:54.57    \nframe=  294 fps=1.7 q=54.0 size=    1280KiB time=00:00:05.86 bitrate=1789.4kbits/s speed=0.0335x elapsed=0:02:55.08    \nframe=  294 fps=1.7 q=54.0 size=    1280KiB time=00:00:05.86 bitrate=1789.4kbits/s speed=0.0334x elapsed=0:02:55.62    \nframe=  294 fps=1.7 q=54.0 size=    1280KiB time=00:00:05.86 bitrate=1789.4kbits/s speed=0.0333x elapsed=0:02:56.15    \nframe=  295 fps=1.7 q=53.0 size=    1280KiB time=00:00:05.88 bitrate=1783.3kbits/s speed=0.0333x elapsed=0:02:56.67    \nframe=  296 fps=1.7 q=54.0 size=    1280KiB time=00:00:05.90 bitrate=1777.2kbits/s speed=0.0333x elapsed=0:02:57.20    \nframe=  298 fps=1.7 q=54.0 size=    1280KiB time=00:00:05.94 bitrate=1765.3kbits/s speed=0.0334x elapsed=0:02:57.76    \nframe=  299 fps=1.7 q=52.0 size=    1280KiB time=00:00:05.96 bitrate=1759.4kbits/s speed=0.0334x elapsed=0:02:58.31    \nframe=  300 fps=1.7 q=44.0 size=    1280KiB time=00:00:05.98 bitrate=1753.5kbits/s speed=0.0334x elapsed=0:02:58.85    \nframe=  302 fps=1.7 q=53.0 size=    1280KiB time=00:00:06.02 bitrate=1741.8kbits/s speed=0.0336x elapsed=0:02:59.41    \nframe=  305 fps=1.7 q=34.0 size=    1280KiB time=00:00:06.08 bitrate=1724.6kbits/s speed=0.0338x elapsed=0:02:59.94    \nframe=  305 fps=1.7 q=34.0 size=    1280KiB time=00:00:06.08 bitrate=1724.6kbits/s speed=0.0337x elapsed=0:03:00.47    \nframe=  305 fps=1.7 q=34.0 size=    1280KiB time=00:00:06.08 bitrate=1724.6kbits/s speed=0.0336x elapsed=0:03:01.00    \nframe=  306 fps=1.7 q=54.0 size=    1280KiB time=00:00:06.10 bitrate=1719.0kbits/s speed=0.0336x elapsed=0:03:01.53    \nframe=  308 fps=1.7 q=48.0 size=    1280KiB time=00:00:06.12 bitrate=1713.4kbits/s speed=0.0336x elapsed=0:03:02.11    \nframe=  308 fps=1.7 q=48.0 size=    1280KiB time=00:00:06.14 bitrate=1707.8kbits/s speed=0.0336x elapsed=0:03:02.74    \nframe=  308 fps=1.7 q=48.0 size=    1280KiB time=00:00:06.14 bitrate=1707.8kbits/s speed=0.0335x elapsed=0:03:03.32    \nframe=  309 fps=1.7 q=52.0 size=    1280KiB time=00:00:06.16 bitrate=1702.2kbits/s speed=0.0335x elapsed=0:03:03.90    \nframe=  310 fps=1.7 q=50.0 size=    1280KiB time=00:00:06.18 bitrate=1696.7kbits/s speed=0.0335x elapsed=0:03:04.40    \nframe=  312 fps=1.7 q=51.0 size=    1280KiB time=00:00:06.20 bitrate=1691.3kbits/s speed=0.0335x elapsed=0:03:04.96    \nframe=  313 fps=1.7 q=49.0 size=    1280KiB time=00:00:06.24 bitrate=1680.4kbits/s speed=0.0336x elapsed=0:03:05.51    \nframe=  313 fps=1.7 q=49.0 size=    1280KiB time=00:00:06.24 bitrate=1680.4kbits/s speed=0.0335x elapsed=0:03:06.10    \nframe=  313 fps=1.7 q=49.0 size=    1280KiB time=00:00:06.24 bitrate=1680.4kbits/s speed=0.0334x elapsed=0:03:06.65    \nframe=  313 fps=1.7 q=49.0 size=    1280KiB time=00:00:06.24 bitrate=1680.4kbits/s speed=0.0333x elapsed=0:03:07.17    \nframe=  313 fps=1.7 q=49.0 size=    1280KiB time=00:00:06.24 bitrate=1680.4kbits/s speed=0.0332x elapsed=0:03:07.69    \nframe=  313 fps=1.7 q=49.0 size=    1280KiB time=00:00:06.24 bitrate=1680.4kbits/s speed=0.0331x elapsed=0:03:08.24    \nframe=  314 fps=1.7 q=50.0 size=    1280KiB time=00:00:06.26 bitrate=1675.0kbits/s speed=0.0332x elapsed=0:03:08.78    \nframe=  316 fps=1.7 q=50.0 size=    1280KiB time=00:00:06.28 bitrate=1669.7kbits/s speed=0.0332x elapsed=0:03:09.33    \nframe=  316 fps=1.7 q=50.0 size=    1280KiB time=00:00:06.30 bitrate=1664.4kbits/s speed=0.0332x elapsed=0:03:09.97    \nframe=  317 fps=1.7 q=44.0 size=    1280KiB time=00:00:06.32 bitrate=1659.1kbits/s speed=0.0332x elapsed=0:03:10.59    \nframe=  318 fps=1.7 q=50.0 size=    1280KiB time=00:00:06.34 bitrate=1653.9kbits/s speed=0.0332x elapsed=0:03:11.11    \nframe=  319 fps=1.7 q=48.0 size=    1280KiB time=00:00:06.36 bitrate=1648.7kbits/s speed=0.0332x elapsed=0:03:11.67    \nframe=  320 fps=1.7 q=50.0 size=    1280KiB time=00:00:06.38 bitrate=1643.5kbits/s speed=0.0332x elapsed=0:03:12.19    \nframe=  321 fps=1.7 q=43.0 size=    1280KiB time=00:00:06.40 bitrate=1638.4kbits/s speed=0.0332x elapsed=0:03:12.71    \nframe=  322 fps=1.7 q=34.0 size=    1280KiB time=00:00:06.42 bitrate=1633.3kbits/s speed=0.0332x elapsed=0:03:13.23    \nframe=  324 fps=1.7 q=50.0 size=    1536KiB time=00:00:06.46 bitrate=1947.8kbits/s speed=0.0333x elapsed=0:03:13.77    \nframe=  324 fps=1.7 q=50.0 size=    1536KiB time=00:00:06.46 bitrate=1947.8kbits/s speed=0.0332x elapsed=0:03:14.29    \nframe=  325 fps=1.7 q=50.0 size=    1536KiB time=00:00:06.48 bitrate=1941.8kbits/s speed=0.0333x elapsed=0:03:14.82    \nframe=  327 fps=1.7 q=50.0 size=    1536KiB time=00:00:06.52 bitrate=1929.9kbits/s speed=0.0334x elapsed=0:03:15.37    \nframe=  328 fps=1.7 q=48.0 size=    1536KiB time=00:00:06.54 bitrate=1924.0kbits/s speed=0.0334x elapsed=0:03:15.90    \nframe=  328 fps=1.7 q=48.0 size=    1536KiB time=00:00:06.54 bitrate=1924.0kbits/s speed=0.0333x elapsed=0:03:16.43    \nframe=  329 fps=1.7 q=50.0 size=    1536KiB time=00:00:06.56 bitrate=1918.1kbits/s speed=0.0333x elapsed=0:03:16.97    \nframe=  330 fps=1.7 q=45.0 size=    1536KiB time=00:00:06.58 bitrate=1912.3kbits/s speed=0.0333x elapsed=0:03:17.48    \nframe=  331 fps=1.7 q=50.0 size=    1536KiB time=00:00:06.60 bitrate=1906.5kbits/s speed=0.0333x elapsed=0:03:18.00    \nframe=  332 fps=1.7 q=48.0 size=    1536KiB time=00:00:06.62 bitrate=1900.7kbits/s speed=0.0333x elapsed=0:03:18.54    \nframe=  332 fps=1.7 q=48.0 size=    1536KiB time=00:00:06.62 bitrate=1900.7kbits/s speed=0.0333x elapsed=0:03:19.05    \nframe=  333 fps=1.7 q=50.0 size=    1536KiB time=00:00:06.64 bitrate=1895.0kbits/s speed=0.0333x elapsed=0:03:19.56    \nframe=  335 fps=1.7 q=50.0 size=    1536KiB time=00:00:06.68 bitrate=1883.7kbits/s speed=0.0334x elapsed=0:03:20.10    \nframe=  336 fps=1.7 q=48.0 size=    1536KiB time=00:00:06.70 bitrate=1878.0kbits/s speed=0.0334x elapsed=0:03:20.82    \nframe=  336 fps=1.7 q=48.0 size=    1536KiB time=00:00:06.70 bitrate=1878.0kbits/s speed=0.0333x elapsed=0:03:21.40    \nframe=  338 fps=1.7 q=35.0 size=    1536KiB time=00:00:06.74 bitrate=1866.9kbits/s speed=0.0334x elapsed=0:03:21.97    \nframe=  339 fps=1.7 q=51.0 size=    1536KiB time=00:00:06.76 bitrate=1861.4kbits/s speed=0.0334x elapsed=0:03:22.51    \nframe=  341 fps=1.7 q=51.0 size=    1536KiB time=00:00:06.80 bitrate=1850.4kbits/s speed=0.0335x elapsed=0:03:23.05    \nframe=  342 fps=1.7 q=48.0 size=    1536KiB time=00:00:06.82 bitrate=1845.0kbits/s speed=0.0335x elapsed=0:03:23.57    \nframe=  343 fps=1.7 q=48.0 size=    1536KiB time=00:00:06.84 bitrate=1839.6kbits/s speed=0.0335x elapsed=0:03:24.08    \nframe=  343 fps=1.7 q=48.0 size=    1536KiB time=00:00:06.84 bitrate=1839.6kbits/s speed=0.0334x elapsed=0:03:24.64    \nframe=  344 fps=1.7 q=45.0 size=    1536KiB time=00:00:06.86 bitrate=1834.2kbits/s speed=0.0334x elapsed=0:03:25.19    \nframe=  345 fps=1.7 q=48.0 size=    1536KiB time=00:00:06.88 bitrate=1828.9kbits/s speed=0.0334x elapsed=0:03:25.72    \nframe=  346 fps=1.7 q=44.0 size=    1536KiB time=00:00:06.90 bitrate=1823.6kbits/s speed=0.0335x elapsed=0:03:26.27    \nframe=  347 fps=1.7 q=50.0 size=    1536KiB time=00:00:06.92 bitrate=1818.3kbits/s speed=0.0335x elapsed=0:03:26.85    \nframe=  348 fps=1.7 q=48.0 size=    1536KiB time=00:00:06.94 bitrate=1813.1kbits/s speed=0.0335x elapsed=0:03:27.39    \nframe=  348 fps=1.7 q=48.0 size=    1536KiB time=00:00:06.94 bitrate=1813.1kbits/s speed=0.0334x elapsed=0:03:27.92    \nframe=  349 fps=1.7 q=50.0 size=    1536KiB time=00:00:06.96 bitrate=1807.9kbits/s speed=0.0334x elapsed=0:03:28.50    \nframe=  350 fps=1.7 q=44.0 size=    1536KiB time=00:00:06.96 bitrate=1807.9kbits/s speed=0.0333x elapsed=0:03:29.09    \nframe=  351 fps=1.7 q=50.0 size=    1536KiB time=00:00:07.00 bitrate=1797.6kbits/s speed=0.0334x elapsed=0:03:29.65    \nframe=  352 fps=1.7 q=48.0 size=    1536KiB time=00:00:07.02 bitrate=1792.4kbits/s speed=0.0334x elapsed=0:03:30.18    \nframe=  353 fps=1.7 q=50.0 size=    1536KiB time=00:00:07.04 bitrate=1787.3kbits/s speed=0.0334x elapsed=0:03:30.75    \nframe=  354 fps=1.7 q=32.0 size=    1536KiB time=00:00:07.06 bitrate=1782.3kbits/s speed=0.0334x elapsed=0:03:31.30    \nframe=  355 fps=1.7 q=51.0 size=    1536KiB time=00:00:07.08 bitrate=1777.2kbits/s speed=0.0334x elapsed=0:03:31.87    \nframe=  357 fps=1.7 q=51.0 size=    1536KiB time=00:00:07.12 bitrate=1767.3kbits/s speed=0.0335x elapsed=0:03:32.45    \nframe=  359 fps=1.7 q=51.0 size=    1536KiB time=00:00:07.16 bitrate=1757.4kbits/s speed=0.0336x elapsed=0:03:33.02    \nframe=  360 fps=1.7 q=50.0 size=    1536KiB time=00:00:07.18 bitrate=1752.5kbits/s speed=0.0336x elapsed=0:03:33.58    \nframe=  361 fps=1.7 q=51.0 size=    1536KiB time=00:00:07.20 bitrate=1747.6kbits/s speed=0.0336x elapsed=0:03:34.11    \nframe=  363 fps=1.7 q=51.0 size=    1536KiB time=00:00:07.24 bitrate=1738.0kbits/s speed=0.0337x elapsed=0:03:34.88    \nframe=  364 fps=1.7 q=50.0 size=    1536KiB time=00:00:07.24 bitrate=1738.0kbits/s speed=0.0336x elapsed=0:03:35.76    \nframe=  366 fps=1.7 q=47.0 size=    1536KiB time=00:00:07.28 bitrate=1728.4kbits/s speed=0.0336x elapsed=0:03:36.90    \nframe=  368 fps=1.7 q=50.0 size=    1536KiB time=00:00:07.32 bitrate=1719.0kbits/s speed=0.0336x elapsed=0:03:37.87    \nframe=  369 fps=1.7 q=51.0 size=    1536KiB time=00:00:07.36 bitrate=1709.6kbits/s speed=0.0336x elapsed=0:03:38.72    \nframe=  372 fps=1.7 q=50.0 size=    1536KiB time=00:00:07.40 bitrate=1700.4kbits/s speed=0.0337x elapsed=0:03:39.66    \nframe=  373 fps=1.7 q=51.0 size=    1536KiB time=00:00:07.44 bitrate=1691.3kbits/s speed=0.0337x elapsed=0:03:40.68    \nframe=  374 fps=1.7 q=47.0 size=    1536KiB time=00:00:07.46 bitrate=1686.7kbits/s speed=0.0337x elapsed=0:03:41.28    \nframe=  375 fps=1.7 q=51.0 size=    1536KiB time=00:00:07.48 bitrate=1682.2kbits/s speed=0.0337x elapsed=0:03:41.82    \nframe=  376 fps=1.7 q=50.0 size=    1536KiB time=00:00:07.50 bitrate=1677.7kbits/s speed=0.0337x elapsed=0:03:42.39    \nframe=  377 fps=1.7 q=51.0 size=    1536KiB time=00:00:07.52 bitrate=1673.3kbits/s speed=0.0337x elapsed=0:03:42.93    \nframe=  379 fps=1.7 q=51.0 size=    1536KiB time=00:00:07.56 bitrate=1664.4kbits/s speed=0.0338x elapsed=0:03:43.48    \nframe=  379 fps=1.7 q=51.0 size=    1536KiB time=00:00:07.56 bitrate=1664.4kbits/s speed=0.0337x elapsed=0:03:44.00    \nframe=  380 fps=1.7 q=50.0 size=    1536KiB time=00:00:07.58 bitrate=1660.0kbits/s speed=0.0338x elapsed=0:03:44.52    \nframe=  380 fps=1.7 q=50.0 size=    1536KiB time=00:00:07.58 bitrate=1660.0kbits/s speed=0.0337x elapsed=0:03:45.07    \nframe=  383 fps=1.7 q=52.0 size=    1536KiB time=00:00:07.62 bitrate=1651.3kbits/s speed=0.0338x elapsed=0:03:45.60    \nframe=  384 fps=1.7 q=50.0 size=    1536KiB time=00:00:07.66 bitrate=1642.7kbits/s speed=0.0339x elapsed=0:03:46.13    \nframe=  384 fps=1.7 q=50.0 size=    1536KiB time=00:00:07.66 bitrate=1642.7kbits/s speed=0.0338x elapsed=0:03:46.65    \nframe=  385 fps=1.7 q=52.0 size=    1536KiB time=00:00:07.68 bitrate=1638.4kbits/s speed=0.0338x elapsed=0:03:47.24    \nframe=  387 fps=1.7 q=52.0 size=    1536KiB time=00:00:07.70 bitrate=1634.1kbits/s speed=0.0338x elapsed=0:03:47.76    \nframe=  388 fps=1.7 q=51.0 size=    1536KiB time=00:00:07.74 bitrate=1625.7kbits/s speed=0.0339x elapsed=0:03:48.39    \nframe=  388 fps=1.7 q=51.0 size=    1536KiB time=00:00:07.74 bitrate=1625.7kbits/s speed=0.0338x elapsed=0:03:48.92    \nframe=  390 fps=1.7 q=48.0 size=    1536KiB time=00:00:07.78 bitrate=1617.3kbits/s speed=0.0339x elapsed=0:03:49.45    \nframe=  406 fps=1.8 q=49.0 size=    1536KiB time=00:00:08.10 bitrate=1553.4kbits/s speed=0.0352x elapsed=0:03:49.98    \nframe=  406 fps=1.8 q=49.0 size=    1536KiB time=00:00:08.10 bitrate=1553.4kbits/s speed=0.0351x elapsed=0:03:50.68    \nframe=  408 fps=1.8 q=51.0 size=    1536KiB time=00:00:08.14 bitrate=1545.8kbits/s speed=0.0352x elapsed=0:03:51.22    \nframe=  410 fps=1.8 q=44.0 size=    1536KiB time=00:00:08.18 bitrate=1538.3kbits/s speed=0.0353x elapsed=0:03:51.82    \nframe=  410 fps=1.8 q=44.0 size=    1536KiB time=00:00:08.18 bitrate=1538.3kbits/s speed=0.0352x elapsed=0:03:52.33    \nframe=  410 fps=1.8 q=44.0 size=    1536KiB time=00:00:08.18 bitrate=1538.3kbits/s speed=0.0351x elapsed=0:03:52.92    \nframe=  414 fps=1.8 q=47.0 size=    1536KiB time=00:00:08.26 bitrate=1523.4kbits/s speed=0.0354x elapsed=0:03:53.46    \nframe=  414 fps=1.8 q=47.0 size=    1536KiB time=00:00:08.26 bitrate=1523.4kbits/s speed=0.0353x elapsed=0:03:54.02    \nframe=  418 fps=1.8 q=34.0 size=    1536KiB time=00:00:08.34 bitrate=1508.7kbits/s speed=0.0356x elapsed=0:03:54.55    \nframe=  418 fps=1.8 q=34.0 size=    1536KiB time=00:00:08.34 bitrate=1508.7kbits/s speed=0.0355x elapsed=0:03:55.11    \nframe=  420 fps=1.8 q=51.0 size=    1536KiB time=00:00:08.38 bitrate=1501.5kbits/s speed=0.0356x elapsed=0:03:55.62    \nframe=  422 fps=1.8 q=49.0 size=    1536KiB time=00:00:08.42 bitrate=1494.4kbits/s speed=0.0357x elapsed=0:03:56.17    \nframe=  422 fps=1.8 q=49.0 size=    1536KiB time=00:00:08.42 bitrate=1494.4kbits/s speed=0.0356x elapsed=0:03:56.71    \nframe=  422 fps=1.8 q=49.0 size=    1536KiB time=00:00:08.42 bitrate=1494.4kbits/s speed=0.0355x elapsed=0:03:57.25    \nframe=  424 fps=1.8 q=51.0 size=    1536KiB time=00:00:08.46 bitrate=1487.3kbits/s speed=0.0356x elapsed=0:03:57.78    \nframe=  426 fps=1.8 q=45.0 size=    1536KiB time=00:00:08.50 bitrate=1480.3kbits/s speed=0.0357x elapsed=0:03:58.31    \nframe=  426 fps=1.8 q=45.0 size=    1536KiB time=00:00:08.50 bitrate=1480.3kbits/s speed=0.0356x elapsed=0:03:58.89    \nframe=  426 fps=1.8 q=45.0 size=    1536KiB time=00:00:08.50 bitrate=1480.3kbits/s speed=0.0355x elapsed=0:03:59.43    \nframe=  426 fps=1.8 q=45.0 size=    1536KiB time=00:00:08.50 bitrate=1480.3kbits/s speed=0.0354x elapsed=0:03:59.98    \nframe=  426 fps=1.8 q=45.0 size=    1536KiB time=00:00:08.50 bitrate=1480.3kbits/s speed=0.0353x elapsed=0:04:00.50    \nframe=  426 fps=1.8 q=45.0 size=    1536KiB time=00:00:08.50 bitrate=1480.3kbits/s speed=0.0353x elapsed=0:04:01.08    \nframe=  426 fps=1.8 q=45.0 size=    1536KiB time=00:00:08.50 bitrate=1480.3kbits/s speed=0.0352x elapsed=0:04:01.63    \nframe=  428 fps=1.8 q=50.0 size=    1536KiB time=00:00:08.54 bitrate=1473.4kbits/s speed=0.0353x elapsed=0:04:02.18    \nframe=  428 fps=1.8 q=50.0 size=    1536KiB time=00:00:08.54 bitrate=1473.4kbits/s speed=0.0352x elapsed=0:04:02.70    \nframe=  430 fps=1.8 q=46.0 size=    1536KiB time=00:00:08.58 bitrate=1466.5kbits/s speed=0.0353x elapsed=0:04:03.24    \nframe=  432 fps=1.8 q=48.0 size=    1536KiB time=00:00:08.58 bitrate=1466.5kbits/s speed=0.0352x elapsed=0:04:03.79    \nframe=  432 fps=1.8 q=48.0 size=    1536KiB time=00:00:08.62 bitrate=1459.7kbits/s speed=0.0353x elapsed=0:04:04.35    \nframe=  434 fps=1.8 q=36.0 size=    1536KiB time=00:00:08.66 bitrate=1453.0kbits/s speed=0.0354x elapsed=0:04:04.88    \nframe=  434 fps=1.8 q=36.0 size=    1536KiB time=00:00:08.66 bitrate=1453.0kbits/s speed=0.0353x elapsed=0:04:05.42    \nframe=  436 fps=1.8 q=50.0 size=    1536KiB time=00:00:08.70 bitrate=1446.3kbits/s speed=0.0354x elapsed=0:04:05.94    \nframe=  438 fps=1.8 q=48.0 size=    1536KiB time=00:00:08.74 bitrate=1439.7kbits/s speed=0.0355x elapsed=0:04:06.48    \nframe=  438 fps=1.8 q=48.0 size=    1536KiB time=00:00:08.74 bitrate=1439.7kbits/s speed=0.0354x elapsed=0:04:07.01    \nframe=  440 fps=1.8 q=46.0 size=    1536KiB time=00:00:08.78 bitrate=1433.1kbits/s speed=0.0355x elapsed=0:04:07.56    \nframe=  442 fps=1.8 q=44.0 size=    1536KiB time=00:00:08.82 bitrate=1426.6kbits/s speed=0.0356x elapsed=0:04:08.09    \nframe=  442 fps=1.8 q=44.0 size=    1536KiB time=00:00:08.82 bitrate=1426.6kbits/s speed=0.0355x elapsed=0:04:08.61    \nframe=  442 fps=1.8 q=44.0 size=    1536KiB time=00:00:08.82 bitrate=1426.6kbits/s speed=0.0354x elapsed=0:04:09.16    \nframe=  442 fps=1.8 q=44.0 size=    1536KiB time=00:00:08.82 bitrate=1426.6kbits/s speed=0.0353x elapsed=0:04:09.70    \nframe=  442 fps=1.8 q=44.0 size=    1536KiB time=00:00:08.82 bitrate=1426.6kbits/s speed=0.0352x elapsed=0:04:10.29    \nframe=  442 fps=1.8 q=44.0 size=    1536KiB time=00:00:08.82 bitrate=1426.6kbits/s speed=0.0352x elapsed=0:04:10.84    \nframe=  444 fps=1.8 q=49.0 size=    1536KiB time=00:00:08.86 bitrate=1420.2kbits/s speed=0.0352x elapsed=0:04:11.37    \nframe=  446 fps=1.8 q=45.0 size=    1536KiB time=00:00:08.90 bitrate=1413.8kbits/s speed=0.0353x elapsed=0:04:11.89    \nframe=  448 fps=1.8 q=49.0 size=    1536KiB time=00:00:08.94 bitrate=1407.5kbits/s speed=0.0354x elapsed=0:04:12.44    \nframe=  450 fps=1.8 q=35.0 size=    1536KiB time=00:00:08.94 bitrate=1407.5kbits/s speed=0.0353x elapsed=0:04:12.95    \nframe=  450 fps=1.8 q=35.0 size=    1536KiB time=00:00:08.98 bitrate=1401.2kbits/s speed=0.0354x elapsed=0:04:13.53    \nframe=  450 fps=1.8 q=35.0 size=    1536KiB time=00:00:08.98 bitrate=1401.2kbits/s speed=0.0353x elapsed=0:04:14.10    \nframe=  450 fps=1.8 q=35.0 size=    1536KiB time=00:00:08.98 bitrate=1401.2kbits/s speed=0.0353x elapsed=0:04:14.65    \nframe=  452 fps=1.8 q=51.0 size=    1536KiB time=00:00:09.02 bitrate=1395.0kbits/s speed=0.0354x elapsed=0:04:15.15    \nframe=  454 fps=1.8 q=49.0 size=    1536KiB time=00:00:09.06 bitrate=1388.8kbits/s speed=0.0354x elapsed=0:04:15.72    \nframe=  454 fps=1.8 q=49.0 size=    1536KiB time=00:00:09.06 bitrate=1388.8kbits/s speed=0.0354x elapsed=0:04:16.24    \nframe=  456 fps=1.8 q=51.0 size=    1536KiB time=00:00:09.10 bitrate=1382.7kbits/s speed=0.0354x elapsed=0:04:16.76    \nframe=  458 fps=1.8 q=45.0 size=    1536KiB time=00:00:09.14 bitrate=1376.7kbits/s speed=0.0355x elapsed=0:04:17.38    \nframe=  458 fps=1.8 q=45.0 size=    1536KiB time=00:00:09.14 bitrate=1376.7kbits/s speed=0.0354x elapsed=0:04:17.91    \nframe=  458 fps=1.8 q=45.0 size=    1536KiB time=00:00:09.14 bitrate=1376.7kbits/s speed=0.0354x elapsed=0:04:18.47    \nframe=  458 fps=1.8 q=45.0 size=    1536KiB time=00:00:09.14 bitrate=1376.7kbits/s speed=0.0353x elapsed=0:04:18.99    \nframe=  458 fps=1.8 q=45.0 size=    1536KiB time=00:00:09.14 bitrate=1376.7kbits/s speed=0.0352x elapsed=0:04:19.53    \nframe=  460 fps=1.8 q=49.0 size=    1536KiB time=00:00:09.18 bitrate=1370.7kbits/s speed=0.0353x elapsed=0:04:20.09    \nframe=  462 fps=1.8 q=45.0 size=    1536KiB time=00:00:09.22 bitrate=1364.7kbits/s speed=0.0354x elapsed=0:04:20.61    \nframe=  462 fps=1.8 q=45.0 size=    1536KiB time=00:00:09.22 bitrate=1364.7kbits/s speed=0.0353x elapsed=0:04:21.14    \nframe=  462 fps=1.8 q=45.0 size=    1536KiB time=00:00:09.22 bitrate=1364.7kbits/s speed=0.0352x elapsed=0:04:21.66    \nframe=  464 fps=1.8 q=48.0 size=    1536KiB time=00:00:09.26 bitrate=1358.8kbits/s speed=0.0353x elapsed=0:04:22.18    \nframe=  466 fps=1.8 q=32.0 size=    1536KiB time=00:00:09.30 bitrate=1353.0kbits/s speed=0.0354x elapsed=0:04:22.68    \nframe=  468 fps=1.8 q=50.0 size=    1536KiB time=00:00:09.34 bitrate=1347.2kbits/s speed=0.0355x elapsed=0:04:23.20    \nframe=  470 fps=1.8 q=48.0 size=    1536KiB time=00:00:09.38 bitrate=1341.5kbits/s speed=0.0356x elapsed=0:04:23.72    \nframe=  470 fps=1.8 q=48.0 size=    1536KiB time=00:00:09.38 bitrate=1341.5kbits/s speed=0.0355x elapsed=0:04:24.26    \nframe=  470 fps=1.8 q=48.0 size=    1536KiB time=00:00:09.38 bitrate=1341.5kbits/s speed=0.0354x elapsed=0:04:24.80    \nframe=  472 fps=1.8 q=50.0 size=    1536KiB time=00:00:09.42 bitrate=1335.8kbits/s speed=0.0355x elapsed=0:04:25.34    \nframe=  474 fps=1.8 q=44.0 size=    1536KiB time=00:00:09.46 bitrate=1330.1kbits/s speed=0.0356x elapsed=0:04:25.87    \nframe=  474 fps=1.8 q=44.0 size=    1536KiB time=00:00:09.46 bitrate=1330.1kbits/s speed=0.0355x elapsed=0:04:26.38    \nframe=  474 fps=1.8 q=44.0 size=    1536KiB time=00:00:09.46 bitrate=1330.1kbits/s speed=0.0354x elapsed=0:04:26.89    \nframe=  474 fps=1.8 q=44.0 size=    1536KiB time=00:00:09.46 bitrate=1330.1kbits/s speed=0.0354x elapsed=0:04:27.43    \nframe=  474 fps=1.8 q=44.0 size=    1536KiB time=00:00:09.46 bitrate=1330.1kbits/s speed=0.0353x elapsed=0:04:27.96    \nframe=  474 fps=1.8 q=44.0 size=    1536KiB time=00:00:09.46 bitrate=1330.1kbits/s speed=0.0352x elapsed=0:04:28.55    \nframe=  476 fps=1.8 q=51.0 size=    1536KiB time=00:00:09.50 bitrate=1324.5kbits/s speed=0.0353x elapsed=0:04:29.11    \nframe=  478 fps=1.8 q=50.0 size=    1536KiB time=00:00:09.54 bitrate=1319.0kbits/s speed=0.0354x elapsed=0:04:29.70    \nframe=  480 fps=1.8 q=52.0 size=    1536KiB time=00:00:09.58 bitrate=1313.5kbits/s speed=0.0354x elapsed=0:04:30.25    \nframe=  482 fps=1.8 q=32.0 size=    1536KiB time=00:00:09.62 bitrate=1308.0kbits/s speed=0.0355x elapsed=0:04:30.76    \nframe=  482 fps=1.8 q=32.0 size=    1536KiB time=00:00:09.62 bitrate=1308.0kbits/s speed=0.0355x elapsed=0:04:31.34    \nframe=  484 fps=1.8 q=52.0 size=    1536KiB time=00:00:09.66 bitrate=1302.6kbits/s speed=0.0355x elapsed=0:04:31.87    \nframe=  486 fps=1.8 q=52.0 size=    1536KiB time=00:00:09.70 bitrate=1297.2kbits/s speed=0.0356x elapsed=0:04:32.41    \nframe=  486 fps=1.8 q=52.0 size=    1536KiB time=00:00:09.70 bitrate=1297.2kbits/s speed=0.0355x elapsed=0:04:32.96    \nframe=  490 fps=1.8 q=50.0 size=    1536KiB time=00:00:09.78 bitrate=1286.6kbits/s speed=0.0358x elapsed=0:04:33.49    \nframe=  490 fps=1.8 q=50.0 size=    1536KiB time=00:00:09.78 bitrate=1286.6kbits/s speed=0.0357x elapsed=0:04:34.01    \nframe=  490 fps=1.8 q=50.0 size=    1536KiB time=00:00:09.78 bitrate=1286.6kbits/s speed=0.0356x elapsed=0:04:34.57    \nframe=  494 fps=1.8 q=52.0 size=    1536KiB time=00:00:09.86 bitrate=1276.2kbits/s speed=0.0358x elapsed=0:04:35.10    \nframe=  494 fps=1.8 q=52.0 size=    1536KiB time=00:00:09.86 bitrate=1276.2kbits/s speed=0.0358x elapsed=0:04:35.65    \n[out#0/matroska @ 00000239dfac9c40] video:2510KiB audio:0KiB subtitle:0KiB other streams:0KiB global headers:0KiB muxing overhead: 0.114668%\nframe=  500 fps=1.8 q=47.0 Lsize=    2513KiB time=00:00:09.98 bitrate=2062.5kbits/s speed=0.0362x elapsed=0:04:35.96    \n",
  "seconds": 278.1945548057556,
  "probe_out": {}
}